<svg width="17" height="19" viewBox="0 0 17 19" fill="none" xmlns="http://www.w3.org/2000/svg">
<path d="M5.81911 14.7894C5.22261 14.7894 3.36421 14.7894 1.98734 14.7894C1.25373 14.7894 0.777492 14.0174 1.10557 13.3613L1.94843 11.6755C2.22249 11.1274 2.36516 10.5237 2.36516 9.91087C2.36516 9.1513 2.36516 8.02304 2.36516 6.89469C2.36516 4.921 3.35201 0.973633 8.28622 0.973633C13.2204 0.973633 14.2073 4.921 14.2073 6.89469C14.2073 8.02304 14.2073 9.1513 14.2073 9.91087C14.2073 10.5237 14.35 11.1274 14.624 11.6755L15.4669 13.3613C15.7949 14.0174 15.3178 14.7894 14.5842 14.7894H10.7533M5.81911 14.7894C5.81911 16.7631 6.80595 17.75 8.28622 17.75C9.76648 17.75 10.7533 16.7631 10.7533 14.7894M5.81911 14.7894C7.36066 14.7894 10.7533 14.7894 10.7533 14.7894" stroke="#818181" stroke-width="0.986842" stroke-linejoin="round"/>
</svg>
