<svg width="24" height="25" viewBox="0 0 24 25" fill="none" xmlns="http://www.w3.org/2000/svg">
<path d="M15.8502 17.9835L17.4835 16.3502L13.1668 12.0335V6.66683H10.8335V12.9668L15.8502 17.9835ZM12.0002 24.1668C10.3863 24.1668 8.86961 23.8606 7.45016 23.2481C6.03072 22.6356 4.796 21.8043 3.746 20.7543C2.696 19.7043 1.86475 18.4696 1.25225 17.0502C0.639746 15.6307 0.333496 14.1141 0.333496 12.5002C0.333496 10.8863 0.639746 9.36961 1.25225 7.95016C1.86475 6.53072 2.696 5.296 3.746 4.246C4.796 3.196 6.03072 2.36475 7.45016 1.75225C8.86961 1.13975 10.3863 0.833496 12.0002 0.833496C13.6141 0.833496 15.1307 1.13975 16.5502 1.75225C17.9696 2.36475 19.2043 3.196 20.2543 4.246C21.3043 5.296 22.1356 6.53072 22.7481 7.95016C23.3606 9.36961 23.6668 10.8863 23.6668 12.5002C23.6668 14.1141 23.3606 15.6307 22.7481 17.0502C22.1356 18.4696 21.3043 19.7043 20.2543 20.7543C19.2043 21.8043 17.9696 22.6356 16.5502 23.2481C15.1307 23.8606 13.6141 24.1668 12.0002 24.1668ZM12.0002 21.8335C14.5863 21.8335 16.7884 20.9245 18.6064 19.1064C20.4245 17.2884 21.3335 15.0863 21.3335 12.5002C21.3335 9.91405 20.4245 7.71197 18.6064 5.89391C16.7884 4.07586 14.5863 3.16683 12.0002 3.16683C9.41405 3.16683 7.21197 4.07586 5.39391 5.89391C3.57586 7.71197 2.66683 9.91405 2.66683 12.5002C2.66683 15.0863 3.57586 17.2884 5.39391 19.1064C7.21197 20.9245 9.41405 21.8335 12.0002 21.8335Z" fill="#0B192C"/>
</svg>
